<mxfile host="app.diagrams.net" agent="Mozilla/5.0 (X11; Linux x86_64; rv:136.0) Gecko/20100101 Firefox/136.0" version="26.1.0">
  <diagram name="Page-1" id="QP_h3UKGy9HYLaFlYPTA">
    <mxGraphModel dx="727" dy="731" grid="1" gridSize="10" guides="1" tooltips="1" connect="1" arrows="1" fold="1" page="1" pageScale="1" pageWidth="850" pageHeight="1100" math="0" shadow="0">
      <root>
        <mxCell id="0" />
        <mxCell id="1" parent="0" />
        <mxCell id="5zkE3JI_U5_ULeXyZl6E-2" value="" style="ellipse;html=1;shape=startState;fillColor=#000000;strokeColor=#ff0000;" vertex="1" parent="1">
          <mxGeometry x="330" y="30" width="30" height="30" as="geometry" />
        </mxCell>
        <mxCell id="5zkE3JI_U5_ULeXyZl6E-3" value="" style="edgeStyle=orthogonalEdgeStyle;html=1;verticalAlign=bottom;endArrow=open;endSize=8;strokeColor=#ff0000;rounded=0;" edge="1" source="5zkE3JI_U5_ULeXyZl6E-2" parent="1" target="5zkE3JI_U5_ULeXyZl6E-4">
          <mxGeometry relative="1" as="geometry">
            <mxPoint x="345" y="180" as="targetPoint" />
          </mxGeometry>
        </mxCell>
        <mxCell id="5zkE3JI_U5_ULeXyZl6E-19" value="startGame()" style="edgeLabel;html=1;align=center;verticalAlign=middle;resizable=0;points=[];" vertex="1" connectable="0" parent="5zkE3JI_U5_ULeXyZl6E-3">
          <mxGeometry x="-0.2238" y="1" relative="1" as="geometry">
            <mxPoint as="offset" />
          </mxGeometry>
        </mxCell>
        <mxCell id="5zkE3JI_U5_ULeXyZl6E-4" value="START" style="rounded=1;whiteSpace=wrap;html=1;arcSize=40;fontColor=#000000;fillColor=#ffffc0;strokeColor=#ff0000;" vertex="1" parent="1">
          <mxGeometry x="285" y="120" width="120" height="40" as="geometry" />
        </mxCell>
        <mxCell id="5zkE3JI_U5_ULeXyZl6E-5" value="" style="edgeStyle=orthogonalEdgeStyle;html=1;verticalAlign=bottom;endArrow=open;endSize=8;strokeColor=#ff0000;rounded=0;" edge="1" source="5zkE3JI_U5_ULeXyZl6E-4" parent="1" target="5zkE3JI_U5_ULeXyZl6E-6">
          <mxGeometry relative="1" as="geometry">
            <mxPoint x="345" y="260" as="targetPoint" />
          </mxGeometry>
        </mxCell>
        <mxCell id="5zkE3JI_U5_ULeXyZl6E-18" value="initializeGame()" style="edgeLabel;html=1;align=center;verticalAlign=middle;resizable=0;points=[];" vertex="1" connectable="0" parent="5zkE3JI_U5_ULeXyZl6E-5">
          <mxGeometry x="-0.1179" relative="1" as="geometry">
            <mxPoint as="offset" />
          </mxGeometry>
        </mxCell>
        <mxCell id="5zkE3JI_U5_ULeXyZl6E-6" value="PLAYING" style="rounded=1;whiteSpace=wrap;html=1;arcSize=40;fontColor=#000000;fillColor=#ffffc0;strokeColor=#ff0000;" vertex="1" parent="1">
          <mxGeometry x="285" y="240" width="120" height="40" as="geometry" />
        </mxCell>
        <mxCell id="5zkE3JI_U5_ULeXyZl6E-7" value="" style="edgeStyle=orthogonalEdgeStyle;html=1;verticalAlign=bottom;endArrow=open;endSize=8;strokeColor=#ff0000;rounded=0;" edge="1" source="5zkE3JI_U5_ULeXyZl6E-6" parent="1" target="5zkE3JI_U5_ULeXyZl6E-8">
          <mxGeometry relative="1" as="geometry">
            <mxPoint x="345" y="340" as="targetPoint" />
          </mxGeometry>
        </mxCell>
        <mxCell id="5zkE3JI_U5_ULeXyZl6E-20" value="setGameState(PAUSE)" style="edgeLabel;html=1;align=center;verticalAlign=middle;resizable=0;points=[];" vertex="1" connectable="0" parent="5zkE3JI_U5_ULeXyZl6E-7">
          <mxGeometry x="0.088" y="2" relative="1" as="geometry">
            <mxPoint as="offset" />
          </mxGeometry>
        </mxCell>
        <mxCell id="5zkE3JI_U5_ULeXyZl6E-8" value="PAUSE" style="rounded=1;whiteSpace=wrap;html=1;arcSize=40;fontColor=#000000;fillColor=#ffffc0;strokeColor=#ff0000;" vertex="1" parent="1">
          <mxGeometry x="40" y="280" width="120" height="40" as="geometry" />
        </mxCell>
        <mxCell id="5zkE3JI_U5_ULeXyZl6E-9" value="" style="edgeStyle=orthogonalEdgeStyle;html=1;verticalAlign=bottom;endArrow=open;endSize=8;strokeColor=#ff0000;rounded=0;" edge="1" source="5zkE3JI_U5_ULeXyZl6E-8" parent="1" target="5zkE3JI_U5_ULeXyZl6E-6">
          <mxGeometry relative="1" as="geometry">
            <mxPoint x="240" y="450" as="targetPoint" />
            <Array as="points">
              <mxPoint x="300" y="350" />
            </Array>
          </mxGeometry>
        </mxCell>
        <mxCell id="5zkE3JI_U5_ULeXyZl6E-21" value="setGameState(PLAYING)" style="edgeLabel;html=1;align=center;verticalAlign=middle;resizable=0;points=[];" vertex="1" connectable="0" parent="5zkE3JI_U5_ULeXyZl6E-9">
          <mxGeometry x="-0.5356" y="-1" relative="1" as="geometry">
            <mxPoint x="20" y="-1" as="offset" />
          </mxGeometry>
        </mxCell>
        <mxCell id="5zkE3JI_U5_ULeXyZl6E-10" value="ENDGAME" style="rounded=1;whiteSpace=wrap;html=1;arcSize=40;fontColor=#000000;fillColor=#ffffc0;strokeColor=#ff0000;" vertex="1" parent="1">
          <mxGeometry x="285" y="420" width="120" height="40" as="geometry" />
        </mxCell>
        <mxCell id="5zkE3JI_U5_ULeXyZl6E-11" value="" style="edgeStyle=orthogonalEdgeStyle;html=1;verticalAlign=bottom;endArrow=open;endSize=8;strokeColor=#ff0000;rounded=0;" edge="1" source="5zkE3JI_U5_ULeXyZl6E-10" parent="1" target="5zkE3JI_U5_ULeXyZl6E-12">
          <mxGeometry relative="1" as="geometry">
            <mxPoint x="460" y="490" as="targetPoint" />
          </mxGeometry>
        </mxCell>
        <mxCell id="5zkE3JI_U5_ULeXyZl6E-12" value="" style="ellipse;html=1;shape=endState;fillColor=#000000;strokeColor=#ff0000;" vertex="1" parent="1">
          <mxGeometry x="445" y="550" width="30" height="30" as="geometry" />
        </mxCell>
        <mxCell id="5zkE3JI_U5_ULeXyZl6E-16" value="" style="edgeStyle=orthogonalEdgeStyle;html=1;verticalAlign=bottom;endArrow=open;endSize=8;strokeColor=#ff0000;rounded=0;" edge="1" parent="1" source="5zkE3JI_U5_ULeXyZl6E-6" target="5zkE3JI_U5_ULeXyZl6E-10">
          <mxGeometry relative="1" as="geometry">
            <mxPoint x="250" y="350" as="targetPoint" />
            <mxPoint x="355" y="290" as="sourcePoint" />
          </mxGeometry>
        </mxCell>
        <mxCell id="5zkE3JI_U5_ULeXyZl6E-26" value="&lt;div&gt;checkWinner() == true || checkDraw() == true &lt;br&gt;&lt;/div&gt;" style="edgeLabel;html=1;align=center;verticalAlign=middle;resizable=0;points=[];" vertex="1" connectable="0" parent="5zkE3JI_U5_ULeXyZl6E-16">
          <mxGeometry x="-0.0305" relative="1" as="geometry">
            <mxPoint y="33" as="offset" />
          </mxGeometry>
        </mxCell>
        <mxCell id="5zkE3JI_U5_ULeXyZl6E-28" value="checkEnd() == true" style="edgeLabel;html=1;align=center;verticalAlign=middle;resizable=0;points=[];" vertex="1" connectable="0" parent="5zkE3JI_U5_ULeXyZl6E-16">
          <mxGeometry x="0.1" y="-1" relative="1" as="geometry">
            <mxPoint as="offset" />
          </mxGeometry>
        </mxCell>
        <mxCell id="5zkE3JI_U5_ULeXyZl6E-22" value="" style="edgeStyle=orthogonalEdgeStyle;html=1;verticalAlign=bottom;endArrow=open;endSize=8;strokeColor=#ff0000;rounded=0;exitX=0.25;exitY=1;exitDx=0;exitDy=0;entryX=0;entryY=0.5;entryDx=0;entryDy=0;" edge="1" parent="1" source="5zkE3JI_U5_ULeXyZl6E-8" target="5zkE3JI_U5_ULeXyZl6E-10">
          <mxGeometry relative="1" as="geometry">
            <mxPoint x="150" y="480" as="targetPoint" />
            <mxPoint x="35" y="370" as="sourcePoint" />
            <Array as="points">
              <mxPoint x="70" y="400" />
              <mxPoint x="150" y="400" />
              <mxPoint x="150" y="440" />
            </Array>
          </mxGeometry>
        </mxCell>
        <mxCell id="5zkE3JI_U5_ULeXyZl6E-23" value="setGameState(ENDGAME)" style="edgeLabel;html=1;align=center;verticalAlign=middle;resizable=0;points=[];" vertex="1" connectable="0" parent="5zkE3JI_U5_ULeXyZl6E-22">
          <mxGeometry x="-0.1475" y="-3" relative="1" as="geometry">
            <mxPoint as="offset" />
          </mxGeometry>
        </mxCell>
        <mxCell id="5zkE3JI_U5_ULeXyZl6E-24" value="" style="edgeStyle=orthogonalEdgeStyle;html=1;verticalAlign=bottom;endArrow=open;endSize=8;strokeColor=#ff0000;rounded=0;exitX=0.75;exitY=0;exitDx=0;exitDy=0;" edge="1" parent="1" source="5zkE3JI_U5_ULeXyZl6E-6" target="5zkE3JI_U5_ULeXyZl6E-6">
          <mxGeometry relative="1" as="geometry">
            <mxPoint x="405" y="280" as="targetPoint" />
            <mxPoint x="405" y="240" as="sourcePoint" />
            <Array as="points">
              <mxPoint x="375" y="220" />
              <mxPoint x="560" y="220" />
              <mxPoint x="560" y="300" />
              <mxPoint x="370" y="300" />
            </Array>
          </mxGeometry>
        </mxCell>
        <mxCell id="5zkE3JI_U5_ULeXyZl6E-25" value="makeMove() &amp;amp;&amp;amp; checkEnd() != true " style="edgeLabel;html=1;align=center;verticalAlign=middle;resizable=0;points=[];" vertex="1" connectable="0" parent="5zkE3JI_U5_ULeXyZl6E-24">
          <mxGeometry x="-0.468" y="1" relative="1" as="geometry">
            <mxPoint x="53" y="21" as="offset" />
          </mxGeometry>
        </mxCell>
      </root>
    </mxGraphModel>
  </diagram>
</mxfile>
